<mxfile host="app.diagrams.net" modified="2023-04-22T15:05:35.699Z" agent="Mozilla/5.0 (Windows NT 10.0; Win64; x64) AppleWebKit/537.36 (KHTML, like Gecko) Chrome/111.0.0.0 Safari/537.36" etag="c5uAWCLOo7IswKm1vrIk" version="21.2.1" type="github">
  <diagram id="6a731a19-8d31-9384-78a2-239565b7b9f0" name="Page-1">
    <mxGraphModel dx="2514" dy="1291" grid="1" gridSize="10" guides="1" tooltips="1" connect="1" arrows="1" fold="1" page="1" pageScale="1" pageWidth="1169" pageHeight="827" background="none" math="0" shadow="0">
      <root>
        <mxCell id="0" />
        <mxCell id="1" parent="0" />
        <mxCell id="1350" value="Programming&lt;br&gt;/Libraries" style="ellipse;whiteSpace=wrap;html=1;shadow=0;fontFamily=Helvetica;fontSize=20;fontColor=#FFFFFF;align=center;strokeWidth=3;fillColor=#1699D3;strokeColor=none;" parent="1" vertex="1">
          <mxGeometry x="543" y="393" width="146.5" height="138.5" as="geometry" />
        </mxCell>
        <mxCell id="1351" value="Mathematics" style="ellipse;whiteSpace=wrap;html=1;shadow=0;fontFamily=Helvetica;fontSize=20;fontColor=#FFFFFF;align=center;strokeWidth=3;fillColor=#F08705;strokeColor=none;gradientColor=none;" parent="1" vertex="1">
          <mxGeometry x="1130" y="231.5" width="120" height="120" as="geometry" />
        </mxCell>
        <mxCell id="1352" value="Machine Learning Fundamentals" style="ellipse;whiteSpace=wrap;html=1;shadow=0;fontFamily=Helvetica;fontSize=20;fontColor=#FFFFFF;align=center;strokeWidth=3;fillColor=#E85642;strokeColor=none;" parent="1" vertex="1">
          <mxGeometry x="1650" y="330" width="171" height="146.5" as="geometry" />
        </mxCell>
        <mxCell id="1353" value="Data Preprocessing" style="ellipse;whiteSpace=wrap;html=1;shadow=0;fontFamily=Helvetica;fontSize=20;fontColor=#FFFFFF;align=center;strokeWidth=3;fillColor=#1699D3;strokeColor=none;" parent="1" vertex="1">
          <mxGeometry x="1747" y="650" width="154" height="133.5" as="geometry" />
        </mxCell>
        <mxCell id="1354" value="Model Selection and Evaluation" style="ellipse;whiteSpace=wrap;html=1;shadow=0;fontFamily=Helvetica;fontSize=20;fontColor=#FFFFFF;align=center;strokeWidth=3;fillColor=#736ca8;strokeColor=none;" parent="1" vertex="1">
          <mxGeometry x="1730" y="891.5" width="239" height="130" as="geometry" />
        </mxCell>
        <mxCell id="1355" value="Advanced Machine Learning Algorithms" style="ellipse;whiteSpace=wrap;html=1;shadow=0;fontFamily=Helvetica;fontSize=20;fontColor=#FFFFFF;align=center;strokeWidth=3;fillColor=#F08705;strokeColor=none;" parent="1" vertex="1">
          <mxGeometry x="1350" y="1106.5" width="196.5" height="120" as="geometry" />
        </mxCell>
        <mxCell id="1356" value="Data Visualization" style="ellipse;whiteSpace=wrap;html=1;shadow=0;fontFamily=Helvetica;fontSize=20;fontColor=#FFFFFF;align=center;strokeWidth=3;fillColor=#E85642;strokeColor=none;" parent="1" vertex="1">
          <mxGeometry x="730" y="1081" width="141.5" height="120" as="geometry" />
        </mxCell>
        <mxCell id="1357" value="linear algebra" style="rounded=1;fillColor=#f5af58;strokeColor=none;strokeWidth=3;shadow=0;html=1;fontColor=#FFFFFF;" parent="1" vertex="1">
          <mxGeometry x="908.5" y="211.5" width="120" height="40" as="geometry" />
        </mxCell>
        <mxCell id="1359" style="endArrow=none;strokeWidth=6;strokeColor=#1699D3;html=1;" parent="1" source="1515" target="1350" edge="1">
          <mxGeometry relative="1" as="geometry" />
        </mxCell>
        <mxCell id="1360" style="endArrow=none;strokeWidth=6;strokeColor=#f08705;html=1;" parent="1" source="1515" target="1351" edge="1">
          <mxGeometry relative="1" as="geometry" />
        </mxCell>
        <mxCell id="1361" style="endArrow=none;strokeWidth=6;strokeColor=#E85642;html=1;" parent="1" source="1515" target="1352" edge="1">
          <mxGeometry relative="1" as="geometry" />
        </mxCell>
        <mxCell id="1362" style="endArrow=none;strokeWidth=6;strokeColor=#1699D3;html=1;" parent="1" source="1515" target="1353" edge="1">
          <mxGeometry relative="1" as="geometry" />
        </mxCell>
        <mxCell id="1363" style="endArrow=none;strokeWidth=6;strokeColor=#736CA8;html=1;" parent="1" source="1515" target="1516" edge="1">
          <mxGeometry relative="1" as="geometry" />
        </mxCell>
        <mxCell id="1364" style="endArrow=none;strokeWidth=6;strokeColor=#736ca8;html=1;" parent="1" source="1515" target="1354" edge="1">
          <mxGeometry relative="1" as="geometry" />
        </mxCell>
        <mxCell id="1365" value="" style="edgeStyle=none;endArrow=none;strokeWidth=6;strokeColor=#F08705;html=1;" parent="1" source="1515" target="1355" edge="1">
          <mxGeometry x="181" y="226.5" width="100" height="100" as="geometry">
            <mxPoint x="181" y="326.5" as="sourcePoint" />
            <mxPoint x="281" y="226.5" as="targetPoint" />
          </mxGeometry>
        </mxCell>
        <mxCell id="1366" value="" style="edgeStyle=none;endArrow=none;strokeWidth=6;strokeColor=#E85642;html=1;" parent="1" source="1515" target="1356" edge="1">
          <mxGeometry x="181" y="226.5" width="100" height="100" as="geometry">
            <mxPoint x="181" y="326.5" as="sourcePoint" />
            <mxPoint x="281" y="226.5" as="targetPoint" />
          </mxGeometry>
        </mxCell>
        <mxCell id="1367" value="PyTorch" style="rounded=1;fillColor=#64BBE2;strokeColor=none;strokeWidth=3;shadow=0;html=1;fontColor=#FFFFFF;" parent="1" vertex="1">
          <mxGeometry x="384.5" y="510" width="130" height="40" as="geometry" />
        </mxCell>
        <mxCell id="1368" value="Pandas" style="rounded=1;fillColor=#64BBE2;strokeColor=none;strokeWidth=3;shadow=0;html=1;fontColor=#FFFFFF;" parent="1" vertex="1">
          <mxGeometry x="280" y="430" width="130" height="40" as="geometry" />
        </mxCell>
        <mxCell id="1369" value="NumPy" style="rounded=1;fillColor=#64BBE2;strokeColor=none;strokeWidth=3;shadow=0;html=1;fontColor=#FFFFFF;" parent="1" vertex="1">
          <mxGeometry x="310" y="290" width="130" height="40" as="geometry" />
        </mxCell>
        <mxCell id="1370" value="Data Structure" style="rounded=1;fillColor=#64BBE2;strokeColor=none;strokeWidth=3;shadow=0;html=1;fontColor=#FFFFFF;" parent="1" vertex="1">
          <mxGeometry x="350" y="171.5" width="130" height="40" as="geometry" />
        </mxCell>
        <mxCell id="1372" value="Python" style="rounded=1;fillColor=#64BBE2;strokeColor=none;strokeWidth=3;shadow=0;html=1;fontColor=#FFFFFF;" parent="1" vertex="1">
          <mxGeometry x="488.5" y="86.5" width="130" height="40" as="geometry" />
        </mxCell>
        <mxCell id="1373" value="R" style="rounded=1;fillColor=#64BBE2;strokeColor=none;strokeWidth=3;shadow=0;html=1;fontColor=#FFFFFF;" parent="1" vertex="1">
          <mxGeometry x="608.5" y="146.5" width="130" height="40" as="geometry" />
        </mxCell>
        <mxCell id="1374" value="Scikit" style="rounded=1;fillColor=#64BBE2;strokeColor=none;strokeWidth=3;shadow=0;html=1;fontColor=#FFFFFF;" parent="1" vertex="1">
          <mxGeometry x="700" y="211.5" width="130" height="40" as="geometry" />
        </mxCell>
        <mxCell id="1375" value="Javascript" style="rounded=1;fillColor=#64BBE2;strokeColor=none;strokeWidth=3;shadow=0;html=1;fontColor=#FFFFFF;" parent="1" vertex="1">
          <mxGeometry x="750" y="290" width="130" height="40" as="geometry" />
        </mxCell>
        <mxCell id="1376" value="Tensorflow" style="rounded=1;fillColor=#64BBE2;strokeColor=none;strokeWidth=3;shadow=0;html=1;fontColor=#FFFFFF;" parent="1" vertex="1">
          <mxGeometry x="793.5" y="383.25" width="130" height="40" as="geometry" />
        </mxCell>
        <mxCell id="1377" value="" style="edgeStyle=none;endArrow=none;strokeWidth=3;strokeColor=#64BBE2;html=1;" parent="1" source="1350" target="1376" edge="1">
          <mxGeometry x="-221.5" y="56.5" width="100" height="100" as="geometry">
            <mxPoint x="-221.5" y="156.5" as="sourcePoint" />
            <mxPoint x="-121.5" y="56.5" as="targetPoint" />
          </mxGeometry>
        </mxCell>
        <mxCell id="1378" value="" style="edgeStyle=none;endArrow=none;strokeWidth=3;strokeColor=#64BBE2;html=1;" parent="1" source="1350" target="1367" edge="1">
          <mxGeometry x="-221.5" y="56.5" width="100" height="100" as="geometry">
            <mxPoint x="-221.5" y="156.5" as="sourcePoint" />
            <mxPoint x="-121.5" y="56.5" as="targetPoint" />
          </mxGeometry>
        </mxCell>
        <mxCell id="1380" value="" style="edgeStyle=none;endArrow=none;strokeWidth=3;strokeColor=#64BBE2;html=1;" parent="1" source="1350" target="1368" edge="1">
          <mxGeometry x="-221.5" y="56.5" width="100" height="100" as="geometry">
            <mxPoint x="-221.5" y="156.5" as="sourcePoint" />
            <mxPoint x="-121.5" y="56.5" as="targetPoint" />
          </mxGeometry>
        </mxCell>
        <mxCell id="1381" value="" style="edgeStyle=none;endArrow=none;strokeWidth=3;strokeColor=#64BBE2;html=1;" parent="1" source="1350" target="1369" edge="1">
          <mxGeometry x="-221.5" y="56.5" width="100" height="100" as="geometry">
            <mxPoint x="-221.5" y="156.5" as="sourcePoint" />
            <mxPoint x="-121.5" y="56.5" as="targetPoint" />
          </mxGeometry>
        </mxCell>
        <mxCell id="1382" value="" style="edgeStyle=none;endArrow=none;strokeWidth=3;strokeColor=#64BBE2;html=1;" parent="1" source="1350" target="1370" edge="1">
          <mxGeometry x="-221.5" y="56.5" width="100" height="100" as="geometry">
            <mxPoint x="-221.5" y="156.5" as="sourcePoint" />
            <mxPoint x="-121.5" y="56.5" as="targetPoint" />
          </mxGeometry>
        </mxCell>
        <mxCell id="1384" value="" style="edgeStyle=none;endArrow=none;strokeWidth=3;strokeColor=#64BBE2;html=1;" parent="1" source="1350" target="1372" edge="1">
          <mxGeometry x="-221.5" y="56.5" width="100" height="100" as="geometry">
            <mxPoint x="-221.5" y="156.5" as="sourcePoint" />
            <mxPoint x="-121.5" y="56.5" as="targetPoint" />
          </mxGeometry>
        </mxCell>
        <mxCell id="1385" value="" style="edgeStyle=none;endArrow=none;strokeWidth=3;strokeColor=#64BBE2;html=1;" parent="1" source="1350" target="1373" edge="1">
          <mxGeometry x="-221.5" y="56.5" width="100" height="100" as="geometry">
            <mxPoint x="-221.5" y="156.5" as="sourcePoint" />
            <mxPoint x="-121.5" y="56.5" as="targetPoint" />
          </mxGeometry>
        </mxCell>
        <mxCell id="1386" value="" style="edgeStyle=none;endArrow=none;strokeWidth=3;strokeColor=#64BBE2;html=1;" parent="1" source="1350" target="1374" edge="1">
          <mxGeometry x="-221.5" y="56.5" width="100" height="100" as="geometry">
            <mxPoint x="-221.5" y="156.5" as="sourcePoint" />
            <mxPoint x="-121.5" y="56.5" as="targetPoint" />
          </mxGeometry>
        </mxCell>
        <mxCell id="1387" value="" style="edgeStyle=none;endArrow=none;strokeWidth=3;strokeColor=#64BBE2;html=1;" parent="1" source="1350" target="1375" edge="1">
          <mxGeometry x="-221.5" y="56.5" width="100" height="100" as="geometry">
            <mxPoint x="-221.5" y="156.5" as="sourcePoint" />
            <mxPoint x="-121.5" y="56.5" as="targetPoint" />
          </mxGeometry>
        </mxCell>
        <mxCell id="1388" value="calculus" style="rounded=1;fillColor=#f5af58;strokeColor=none;strokeWidth=3;shadow=0;html=1;fontColor=#FFFFFF;" parent="1" vertex="1">
          <mxGeometry x="1010" y="140" width="120" height="40" as="geometry" />
        </mxCell>
        <mxCell id="1389" value="probability" style="rounded=1;fillColor=#f5af58;strokeColor=none;strokeWidth=3;shadow=0;html=1;fontColor=#FFFFFF;" parent="1" vertex="1">
          <mxGeometry x="1183.5" y="120" width="120" height="40" as="geometry" />
        </mxCell>
        <mxCell id="1390" value="statistics" style="rounded=1;fillColor=#f5af58;strokeColor=none;strokeWidth=3;shadow=0;html=1;fontColor=#FFFFFF;" parent="1" vertex="1">
          <mxGeometry x="1320" y="200" width="120" height="40" as="geometry" />
        </mxCell>
        <mxCell id="1399" value="" style="edgeStyle=none;endArrow=none;strokeWidth=3;strokeColor=#F5AF58;html=1;" parent="1" source="1351" target="1357" edge="1">
          <mxGeometry x="3.5" y="21.5" width="100" height="100" as="geometry">
            <mxPoint x="3.5" y="121.5" as="sourcePoint" />
            <mxPoint x="103.5" y="21.5" as="targetPoint" />
          </mxGeometry>
        </mxCell>
        <mxCell id="1400" value="" style="edgeStyle=none;endArrow=none;strokeWidth=3;strokeColor=#F5AF58;html=1;" parent="1" source="1351" target="1388" edge="1">
          <mxGeometry x="3.5" y="21.5" width="100" height="100" as="geometry">
            <mxPoint x="3.5" y="121.5" as="sourcePoint" />
            <mxPoint x="103.5" y="21.5" as="targetPoint" />
          </mxGeometry>
        </mxCell>
        <mxCell id="1401" value="" style="edgeStyle=none;endArrow=none;strokeWidth=3;strokeColor=#F5AF58;html=1;" parent="1" source="1351" target="1389" edge="1">
          <mxGeometry x="3.5" y="21.5" width="100" height="100" as="geometry">
            <mxPoint x="3.5" y="121.5" as="sourcePoint" />
            <mxPoint x="103.5" y="21.5" as="targetPoint" />
          </mxGeometry>
        </mxCell>
        <mxCell id="1402" value="" style="edgeStyle=none;endArrow=none;strokeWidth=3;strokeColor=#F5AF58;html=1;" parent="1" source="1351" target="1390" edge="1">
          <mxGeometry x="3.5" y="21.5" width="100" height="100" as="geometry">
            <mxPoint x="3.5" y="121.5" as="sourcePoint" />
            <mxPoint x="103.5" y="21.5" as="targetPoint" />
          </mxGeometry>
        </mxCell>
        <mxCell id="1413" value="Classification" style="rounded=1;fillColor=#f08e81;strokeColor=none;strokeWidth=3;shadow=0;html=1;fontColor=#FFFFFF;" parent="1" vertex="1">
          <mxGeometry x="1468.5" y="346.5" width="120" height="40" as="geometry" />
        </mxCell>
        <mxCell id="1414" value="Regression" style="rounded=1;fillColor=#f08e81;strokeColor=none;strokeWidth=3;shadow=0;html=1;fontColor=#FFFFFF;" parent="1" vertex="1">
          <mxGeometry x="1901" y="393" width="120" height="40" as="geometry" />
        </mxCell>
        <mxCell id="1415" value="Unsupervised" style="rounded=1;fillColor=#f08e81;strokeColor=none;strokeWidth=3;shadow=0;html=1;fontColor=#FFFFFF;" parent="1" vertex="1">
          <mxGeometry x="1541" y="271.5" width="120" height="40" as="geometry" />
        </mxCell>
        <mxCell id="1416" value="Supervised" style="rounded=1;fillColor=#f08e81;strokeColor=none;strokeWidth=3;shadow=0;html=1;fontColor=#FFFFFF;" parent="1" vertex="1">
          <mxGeometry x="1633" y="211.5" width="120" height="40" as="geometry" />
        </mxCell>
        <mxCell id="1417" value="Clustering" style="rounded=1;fillColor=#f08e81;strokeColor=none;strokeWidth=3;shadow=0;html=1;fontColor=#FFFFFF;" parent="1" vertex="1">
          <mxGeometry x="1766" y="166.5" width="120" height="40" as="geometry" />
        </mxCell>
        <mxCell id="1418" value="Anomaly Detection" style="rounded=1;fillColor=#f08e81;strokeColor=none;strokeWidth=3;shadow=0;html=1;fontColor=#FFFFFF;" parent="1" vertex="1">
          <mxGeometry x="1861" y="246.5" width="120" height="40" as="geometry" />
        </mxCell>
        <mxCell id="1419" value=".etc" style="rounded=1;fillColor=#f08e81;strokeColor=none;strokeWidth=3;shadow=0;html=1;fontColor=#FFFFFF;" parent="1" vertex="1">
          <mxGeometry x="1916" y="321.5" width="120" height="40" as="geometry" />
        </mxCell>
        <mxCell id="1424" value="" style="edgeStyle=none;endArrow=none;strokeWidth=3;strokeColor=#F08E81;html=1;" parent="1" source="1352" target="1413" edge="1">
          <mxGeometry x="31" y="106.5" width="100" height="100" as="geometry">
            <mxPoint x="31" y="206.5" as="sourcePoint" />
            <mxPoint x="131" y="106.5" as="targetPoint" />
          </mxGeometry>
        </mxCell>
        <mxCell id="1425" value="" style="edgeStyle=none;endArrow=none;strokeWidth=3;strokeColor=#F08E81;html=1;" parent="1" source="1352" target="1414" edge="1">
          <mxGeometry x="31" y="106.5" width="100" height="100" as="geometry">
            <mxPoint x="31" y="206.5" as="sourcePoint" />
            <mxPoint x="131" y="106.5" as="targetPoint" />
          </mxGeometry>
        </mxCell>
        <mxCell id="1426" value="" style="edgeStyle=none;endArrow=none;strokeWidth=3;strokeColor=#F08E81;html=1;" parent="1" source="1352" target="1415" edge="1">
          <mxGeometry x="31" y="106.5" width="100" height="100" as="geometry">
            <mxPoint x="31" y="206.5" as="sourcePoint" />
            <mxPoint x="131" y="106.5" as="targetPoint" />
          </mxGeometry>
        </mxCell>
        <mxCell id="1427" value="" style="edgeStyle=none;endArrow=none;strokeWidth=3;strokeColor=#F08E81;html=1;" parent="1" source="1352" target="1416" edge="1">
          <mxGeometry x="31" y="106.5" width="100" height="100" as="geometry">
            <mxPoint x="31" y="206.5" as="sourcePoint" />
            <mxPoint x="131" y="106.5" as="targetPoint" />
          </mxGeometry>
        </mxCell>
        <mxCell id="1428" value="" style="edgeStyle=none;endArrow=none;strokeWidth=3;strokeColor=#F08E81;html=1;" parent="1" source="1352" target="1417" edge="1">
          <mxGeometry x="31" y="106.5" width="100" height="100" as="geometry">
            <mxPoint x="31" y="206.5" as="sourcePoint" />
            <mxPoint x="131" y="106.5" as="targetPoint" />
          </mxGeometry>
        </mxCell>
        <mxCell id="1429" value="" style="edgeStyle=none;endArrow=none;strokeWidth=3;strokeColor=#F08E81;html=1;" parent="1" source="1352" target="1418" edge="1">
          <mxGeometry x="31" y="106.5" width="100" height="100" as="geometry">
            <mxPoint x="31" y="206.5" as="sourcePoint" />
            <mxPoint x="131" y="106.5" as="targetPoint" />
          </mxGeometry>
        </mxCell>
        <mxCell id="1430" value="" style="edgeStyle=none;endArrow=none;strokeWidth=3;strokeColor=#F08E81;html=1;" parent="1" source="1352" target="1419" edge="1">
          <mxGeometry x="31" y="106.5" width="100" height="100" as="geometry">
            <mxPoint x="31" y="206.5" as="sourcePoint" />
            <mxPoint x="131" y="106.5" as="targetPoint" />
          </mxGeometry>
        </mxCell>
        <mxCell id="1468" value="reinforcement learning" style="rounded=1;fillColor=#f5af58;strokeColor=none;strokeWidth=3;shadow=0;html=1;fontColor=#FFFFFF;" parent="1" vertex="1">
          <mxGeometry x="1700" y="1211.5" width="131.5" height="40" as="geometry" />
        </mxCell>
        <mxCell id="1469" value="natural language processing" style="rounded=1;fillColor=#f5af58;strokeColor=none;strokeWidth=3;shadow=0;html=1;fontColor=#FFFFFF;" parent="1" vertex="1">
          <mxGeometry x="1665.75" y="1286.5" width="176.5" height="40" as="geometry" />
        </mxCell>
        <mxCell id="1470" value="Generative Adversarial Networks (GANs)" style="rounded=1;fillColor=#f5af58;strokeColor=none;strokeWidth=3;shadow=0;html=1;fontColor=#FFFFFF;" parent="1" vertex="1">
          <mxGeometry x="1582.5" y="1374" width="231.5" height="40" as="geometry" />
        </mxCell>
        <mxCell id="1471" value="Transfer Learning" style="rounded=1;fillColor=#f5af58;strokeColor=none;strokeWidth=3;shadow=0;html=1;fontColor=#FFFFFF;" parent="1" vertex="1">
          <mxGeometry x="1470" y="1331.5" width="120" height="40" as="geometry" />
        </mxCell>
        <mxCell id="1472" value="Bayesian Networks" style="rounded=1;fillColor=#f5af58;strokeColor=none;strokeWidth=3;shadow=0;html=1;fontColor=#FFFFFF;" parent="1" vertex="1">
          <mxGeometry x="1370" y="1399" width="120" height="40" as="geometry" />
        </mxCell>
        <mxCell id="1473" value="Support Vector Machines (SVMs)" style="rounded=1;fillColor=#f5af58;strokeColor=none;strokeWidth=3;shadow=0;html=1;fontColor=#FFFFFF;" parent="1" vertex="1">
          <mxGeometry x="1210" y="1291.5" width="203.5" height="40" as="geometry" />
        </mxCell>
        <mxCell id="1478" value="deep learning" style="rounded=1;fillColor=#f5af58;strokeColor=none;strokeWidth=3;shadow=0;html=1;fontColor=#FFFFFF;" parent="1" vertex="1">
          <mxGeometry x="1694" y="1141.5" width="120" height="40" as="geometry" />
        </mxCell>
        <mxCell id="1479" value="" style="edgeStyle=none;endArrow=none;strokeWidth=3;strokeColor=#F5AF58;html=1;" parent="1" source="1355" target="1478" edge="1">
          <mxGeometry x="243.5" y="39" width="100" height="100" as="geometry">
            <mxPoint x="243.5" y="139" as="sourcePoint" />
            <mxPoint x="343.5" y="39" as="targetPoint" />
          </mxGeometry>
        </mxCell>
        <mxCell id="1480" value="" style="edgeStyle=none;endArrow=none;strokeWidth=3;strokeColor=#F5AF58;html=1;" parent="1" source="1355" target="1468" edge="1">
          <mxGeometry x="243.5" y="39" width="100" height="100" as="geometry">
            <mxPoint x="243.5" y="139" as="sourcePoint" />
            <mxPoint x="343.5" y="39" as="targetPoint" />
          </mxGeometry>
        </mxCell>
        <mxCell id="1481" value="" style="edgeStyle=none;endArrow=none;strokeWidth=3;strokeColor=#F5AF58;html=1;" parent="1" source="1355" target="1469" edge="1">
          <mxGeometry x="243.5" y="39" width="100" height="100" as="geometry">
            <mxPoint x="243.5" y="139" as="sourcePoint" />
            <mxPoint x="343.5" y="39" as="targetPoint" />
          </mxGeometry>
        </mxCell>
        <mxCell id="1482" value="" style="edgeStyle=none;endArrow=none;strokeWidth=3;strokeColor=#F5AF58;html=1;" parent="1" source="1355" target="1470" edge="1">
          <mxGeometry x="243.5" y="39" width="100" height="100" as="geometry">
            <mxPoint x="243.5" y="139" as="sourcePoint" />
            <mxPoint x="343.5" y="39" as="targetPoint" />
          </mxGeometry>
        </mxCell>
        <mxCell id="1483" value="" style="edgeStyle=none;endArrow=none;strokeWidth=3;strokeColor=#F5AF58;html=1;" parent="1" source="1355" target="1471" edge="1">
          <mxGeometry x="243.5" y="39" width="100" height="100" as="geometry">
            <mxPoint x="243.5" y="139" as="sourcePoint" />
            <mxPoint x="343.5" y="39" as="targetPoint" />
          </mxGeometry>
        </mxCell>
        <mxCell id="1484" value="" style="edgeStyle=none;endArrow=none;strokeWidth=3;strokeColor=#F5AF58;html=1;" parent="1" source="1355" target="1472" edge="1">
          <mxGeometry x="243.5" y="39" width="100" height="100" as="geometry">
            <mxPoint x="243.5" y="139" as="sourcePoint" />
            <mxPoint x="343.5" y="39" as="targetPoint" />
          </mxGeometry>
        </mxCell>
        <mxCell id="1485" value="" style="edgeStyle=none;endArrow=none;strokeWidth=3;strokeColor=#F5AF58;html=1;" parent="1" source="1355" target="1473" edge="1">
          <mxGeometry x="243.5" y="39" width="100" height="100" as="geometry">
            <mxPoint x="243.5" y="139" as="sourcePoint" />
            <mxPoint x="343.5" y="39" as="targetPoint" />
          </mxGeometry>
        </mxCell>
        <mxCell id="1490" value="Matplotlib" style="rounded=1;fillColor=#f08e81;strokeColor=none;strokeWidth=3;shadow=0;html=1;fontColor=#FFFFFF;" parent="1" vertex="1">
          <mxGeometry x="1090" y="1201" width="120" height="40" as="geometry" />
        </mxCell>
        <mxCell id="1491" value="D3.js" style="rounded=1;fillColor=#f08e81;strokeColor=none;strokeWidth=3;shadow=0;html=1;fontColor=#FFFFFF;" parent="1" vertex="1">
          <mxGeometry x="569.5" y="1280" width="120" height="40" as="geometry" />
        </mxCell>
        <mxCell id="1492" value="ggplot2" style="rounded=1;fillColor=#f08e81;strokeColor=none;strokeWidth=3;shadow=0;html=1;fontColor=#FFFFFF;" parent="1" vertex="1">
          <mxGeometry x="698.5" y="1320" width="120" height="40" as="geometry" />
        </mxCell>
        <mxCell id="1493" value="Tableau" style="rounded=1;fillColor=#f08e81;strokeColor=none;strokeWidth=3;shadow=0;html=1;fontColor=#FFFFFF;" parent="1" vertex="1">
          <mxGeometry x="770" y="1400" width="120" height="40" as="geometry" />
        </mxCell>
        <mxCell id="1494" value="Bokeh" style="rounded=1;fillColor=#f08e81;strokeColor=none;strokeWidth=3;shadow=0;html=1;fontColor=#FFFFFF;" parent="1" vertex="1">
          <mxGeometry x="900" y="1360" width="120" height="40" as="geometry" />
        </mxCell>
        <mxCell id="1495" value="Plotly" style="rounded=1;fillColor=#f08e81;strokeColor=none;strokeWidth=3;shadow=0;html=1;fontColor=#FFFFFF;" parent="1" vertex="1">
          <mxGeometry x="1040" y="1320" width="120" height="40" as="geometry" />
        </mxCell>
        <mxCell id="1503" value="" style="edgeStyle=none;endArrow=none;strokeWidth=3;strokeColor=#F08E81;html=1;" parent="1" source="1356" target="1490" edge="1">
          <mxGeometry x="188.5" y="51.5" width="100" height="100" as="geometry">
            <mxPoint x="188.5" y="151.5" as="sourcePoint" />
            <mxPoint x="288.5" y="51.5" as="targetPoint" />
          </mxGeometry>
        </mxCell>
        <mxCell id="1504" value="" style="edgeStyle=none;endArrow=none;strokeWidth=3;strokeColor=#F08E81;html=1;" parent="1" source="1356" target="1491" edge="1">
          <mxGeometry x="188.5" y="51.5" width="100" height="100" as="geometry">
            <mxPoint x="188.5" y="151.5" as="sourcePoint" />
            <mxPoint x="288.5" y="51.5" as="targetPoint" />
          </mxGeometry>
        </mxCell>
        <mxCell id="1505" value="" style="edgeStyle=none;endArrow=none;strokeWidth=3;strokeColor=#F08E81;html=1;" parent="1" source="1356" target="1492" edge="1">
          <mxGeometry x="188.5" y="51.5" width="100" height="100" as="geometry">
            <mxPoint x="188.5" y="151.5" as="sourcePoint" />
            <mxPoint x="288.5" y="51.5" as="targetPoint" />
          </mxGeometry>
        </mxCell>
        <mxCell id="1506" value="" style="edgeStyle=none;endArrow=none;strokeWidth=3;strokeColor=#F08E81;html=1;" parent="1" source="1356" target="1493" edge="1">
          <mxGeometry x="188.5" y="51.5" width="100" height="100" as="geometry">
            <mxPoint x="188.5" y="151.5" as="sourcePoint" />
            <mxPoint x="288.5" y="51.5" as="targetPoint" />
          </mxGeometry>
        </mxCell>
        <mxCell id="1507" value="" style="edgeStyle=none;endArrow=none;strokeWidth=3;strokeColor=#F08E81;html=1;" parent="1" source="1356" target="1494" edge="1">
          <mxGeometry x="188.5" y="51.5" width="100" height="100" as="geometry">
            <mxPoint x="188.5" y="151.5" as="sourcePoint" />
            <mxPoint x="288.5" y="51.5" as="targetPoint" />
          </mxGeometry>
        </mxCell>
        <mxCell id="1508" value="" style="edgeStyle=none;endArrow=none;strokeWidth=3;strokeColor=#F08E81;html=1;" parent="1" source="1356" target="1495" edge="1">
          <mxGeometry x="188.5" y="51.5" width="100" height="100" as="geometry">
            <mxPoint x="188.5" y="151.5" as="sourcePoint" />
            <mxPoint x="288.5" y="51.5" as="targetPoint" />
          </mxGeometry>
        </mxCell>
        <mxCell id="1514" style="edgeStyle=orthogonalEdgeStyle;rounded=0;html=1;exitX=0.75;exitY=0;entryX=0.75;entryY=0;startArrow=none;startFill=0;endArrow=block;endFill=1;jettySize=auto;orthogonalLoop=1;strokeColor=#12aab5;strokeWidth=6;fontSize=20;fontColor=#2F5B7C;" parent="1" source="1414" target="1414" edge="1">
          <mxGeometry relative="1" as="geometry" />
        </mxCell>
        <mxCell id="1515" value="Machine Learning" style="ellipse;whiteSpace=wrap;html=1;shadow=0;fontFamily=Helvetica;fontSize=30;fontColor=#2F5B7C;align=center;strokeColor=#2F5B7C;strokeWidth=6;fillColor=#FFFFFF;fontStyle=1;gradientColor=none;" parent="1" vertex="1">
          <mxGeometry x="961" y="676.5" width="270" height="270" as="geometry" />
        </mxCell>
        <mxCell id="1516" value="Model Deployment" style="ellipse;whiteSpace=wrap;html=1;shadow=0;fontFamily=Helvetica;fontSize=20;fontColor=#FFFFFF;align=center;strokeWidth=3;fillColor=#736ca8;strokeColor=none;" parent="1" vertex="1">
          <mxGeometry x="452" y="790" width="120" height="120" as="geometry" />
        </mxCell>
        <mxCell id="1518" value="AWS" style="rounded=1;fillColor=#a29dc5;strokeColor=none;strokeWidth=3;shadow=0;html=1;fontColor=#FFFFFF;" parent="1" vertex="1">
          <mxGeometry x="448.5" y="980" width="120" height="40" as="geometry" />
        </mxCell>
        <mxCell id="1519" value="GCP" style="rounded=1;fillColor=#a29dc5;strokeColor=none;strokeWidth=3;shadow=0;html=1;fontColor=#FFFFFF;" parent="1" vertex="1">
          <mxGeometry x="260" y="920" width="120" height="40" as="geometry" />
        </mxCell>
        <mxCell id="1520" value="Azure" style="rounded=1;fillColor=#a29dc5;strokeColor=none;strokeWidth=3;shadow=0;html=1;fontColor=#FFFFFF;" parent="1" vertex="1">
          <mxGeometry x="280" y="743.5" width="120" height="40" as="geometry" />
        </mxCell>
        <mxCell id="1530" value="" style="edgeStyle=none;endArrow=none;strokeWidth=3;strokeColor=#A29DC5;html=1;" parent="1" source="1516" target="1518" edge="1">
          <mxGeometry x="-1498" y="-303.5" width="100" height="100" as="geometry">
            <mxPoint x="-1498" y="-203.5" as="sourcePoint" />
            <mxPoint x="-1398" y="-303.5" as="targetPoint" />
          </mxGeometry>
        </mxCell>
        <mxCell id="1531" value="" style="edgeStyle=none;endArrow=none;strokeWidth=3;strokeColor=#A29DC5;html=1;" parent="1" source="1516" target="1519" edge="1">
          <mxGeometry x="-1498" y="-303.5" width="100" height="100" as="geometry">
            <mxPoint x="-1498" y="-203.5" as="sourcePoint" />
            <mxPoint x="-1398" y="-303.5" as="targetPoint" />
          </mxGeometry>
        </mxCell>
        <mxCell id="1532" value="" style="edgeStyle=none;endArrow=none;strokeWidth=3;strokeColor=#A29DC5;html=1;" parent="1" source="1516" target="1520" edge="1">
          <mxGeometry x="-1498" y="-303.5" width="100" height="100" as="geometry">
            <mxPoint x="-1498" y="-203.5" as="sourcePoint" />
            <mxPoint x="-1398" y="-303.5" as="targetPoint" />
          </mxGeometry>
        </mxCell>
        <mxCell id="1542" style="edgeStyle=none;rounded=0;html=1;exitX=0.5;exitY=1;endArrow=none;endFill=0;jettySize=auto;orthogonalLoop=1;strokeColor=#736CA8;strokeWidth=2;fillColor=#64bbe2;fontSize=20;fontColor=#23445D;" parent="1" edge="1">
          <mxGeometry relative="1" as="geometry">
            <mxPoint x="137" y="771.5" as="sourcePoint" />
            <mxPoint x="137" y="771.5" as="targetPoint" />
          </mxGeometry>
        </mxCell>
      </root>
    </mxGraphModel>
  </diagram>
</mxfile>
